# xmcd
#
# Track frame offsets:
#	150
#	15562
#	29138
#	43886
#	59301
#	72887
#
# Disc length: 1306 seconds
#
# Revision: 0
# Processed by: cddbd v1.4PL0 Copyright (c) Steve Scherf et al.
# Submitted via: EasyCDDAExtractor 5.0.5.1
#
DISCID=51051806
DTITLE=C.P. Grun - White Socks
DYEAR=2001
DGENRE=Blues
TTITLE0=White Socks
TTITLE1=River Is Deep
TTITLE2=Baby, You Drive Me Crazy
TTITLE3=White Socks (original archive version)
TTITLE4=River Is Deep (instrumental)
TTITLE5=White Socks (instrumental+)
EXTD=
EXTT0=
EXTT1=
EXTT2=
EXTT3=
EXTT4=
EXTT5=
PLAYORDER=
